<?xml version="1.0" encoding="UTF-8" standalone="no"?>
<svg
   xmlns:dc="http://purl.org/dc/elements/1.1/"
   xmlns:cc="http://creativecommons.org/ns#"
   xmlns:rdf="http://www.w3.org/1999/02/22-rdf-syntax-ns#"
   xmlns:svg="http://www.w3.org/2000/svg"
   xmlns="http://www.w3.org/2000/svg"
   xmlns:sodipodi="http://sodipodi.sourceforge.net/DTD/sodipodi-0.dtd"
   xmlns:inkscape="http://www.inkscape.org/namespaces/inkscape"
   inkscape:version="1.0 (4035a4fb49, 2020-05-01)"
   sodipodi:docname="ЛОГО свджи.svg"
   width="200"
   height="117.563"
   viewBox="0 0 52.916666 31.105213"
   version="1.1"
   id="svg2236">
  <sodipodi:namedview
     inkscape:current-layer="svg2236"
     inkscape:window-maximized="1"
     inkscape:window-y="-8"
     inkscape:window-x="-8"
     inkscape:cy="90.621034"
     inkscape:cx="117.15729"
     inkscape:zoom="2.3228458"
     showgrid="false"
     id="namedview14"
     inkscape:window-height="1017"
     inkscape:window-width="1920"
     inkscape:pageshadow="2"
     inkscape:pageopacity="0"
     guidetolerance="10"
     gridtolerance="10"
     objecttolerance="10"
     borderopacity="1"
     bordercolor="#666666"
     pagecolor="#ffffff" />
  <defs
     id="defs2230" />
  <metadata
     id="metadata2233">
    <rdf:RDF>
      <cc:Work
         rdf:about="">
        <dc:format>image/svg+xml</dc:format>
        <dc:type
           rdf:resource="http://purl.org/dc/dcmitype/StillImage" />
        <dc:title />
      </cc:Work>
    </rdf:RDF>
  </metadata>
  <g
     id="g904">
    <path
       d="m 10.477673,10.210003 q -1.8281967,1.668454 -1.8281967,5.200607 0,3.372407 1.5619557,5.094109 Q 8.7382265,19.883487 7.9749939,18.410277 7.1940111,16.901569 7.1940111,15.41061 q 0,-1.171468 0.4437415,-2.271937 0.4259915,-1.10047 1.0294738,-1.703953 0.6212323,-0.621233 1.8104466,-1.224717 z m 10.507709,7.508043 h 0.692233 q -0.514732,1.952446 -2.005698,3.177163 -1.526455,1.260214 -3.762894,1.260214 -2.023437,0 -3.230412,-0.816477 -1.242464,-0.834227 -2.023437,-2.218689 -0.8164832,-1.402211 -0.8164832,-3.496653 0,-2.91092 1.5974562,-4.792368 1.561956,-1.8814475 5.005368,-1.8814475 2.413929,0 4.792368,0.8697262 0,0.1774947 -0.03554,0.4969863 -0.01777,0.195244 -0.01777,0.319491 0,0.603483 0.08875,1.615205 0.05321,0.603484 0.05321,0.834227 0,0.301742 -0.08875,0.922974 H 20.861042 Q 20.43505,12.055953 19.121586,11.008731 17.825871,9.9792603 16.015424,9.9792603 q -2.058947,0 -3.390162,1.3844607 -1.348956,1.366712 -1.348956,3.869394 0,2.449432 1.206965,4.082387 1.189214,1.615206 3.514403,1.615206 3.212662,0 4.987609,-3.212662 z"
       style="font-style:normal;font-variant:normal;font-weight:normal;font-stretch:normal;font-size:37.6411px;line-height:1.25;font-family:'Colonna MT';-inkscape-font-specification:'Colonna MT';letter-spacing:0px;word-spacing:0px;fill:#bfa374;fill-opacity:1;stroke:none;stroke-width:0.425989"
       id="path839" />
    <path
       d="m 25.95525,15.321862 q -1.118224,1.402211 -1.118224,3.070665 0,1.970197 1.384465,3.230411 -1.082724,-0.248493 -1.916947,-1.08272 -0.869723,-0.816477 -0.869723,-2.129941 0,-2.289687 2.520429,-3.088415 z m 11.412933,6.691566 -3.407903,-0.212994 v -9.211996 q 0,-1.402211 -0.266241,-2.058944 -0.301751,-0.6744802 -1.047224,-1.153717 1.544206,0.3017412 2.094438,1.100469 0.550242,0.816478 0.550242,2.928669 v 5.484599 q 0,1.402211 0.390481,2.005695 0.372742,0.603483 1.686207,0.798728 z m -5.892842,-1.686203 v -4.632623 q -0.585732,-0.071 -0.993964,-0.071 -1.402215,0 -2.183198,0.851976 -0.780973,0.869727 -0.780973,1.987946 0,1.011722 0.656733,1.721702 0.674482,0.74548 1.632956,0.74548 0.851973,0 1.668446,-0.603483 z m 0,-5.608846 v -1.881448 q 0,-1.277965 -0.514732,-2.005695 -0.532482,-0.70998 -2.058938,-0.70998 -2.378439,0 -4.011395,1.7927 l -0.443741,-0.425988 q 0.656732,-1.118219 2.076697,-1.845949 1.419966,-0.6922305 2.946421,-0.6922305 3.319153,0 3.319153,3.6208995 v 9.229746 q -0.816473,0.0355 -1.366706,0.212994 l 0.05321,-0.940725 q -0.887473,0.940725 -2.112188,0.940725 -1.402215,0 -2.342939,-1.10047 -0.958473,-1.100469 -0.958473,-2.484931 0,-1.597456 1.171474,-2.733425 1.135964,-1.135969 3.035161,-1.135969 0.603483,0 1.206965,0.159746 z"
       style="font-style:normal;font-variant:normal;font-weight:normal;font-stretch:normal;font-size:37.6411px;line-height:1.25;font-family:'Colonna MT';-inkscape-font-specification:'Colonna MT';letter-spacing:0px;word-spacing:0px;fill:#bfa374;fill-opacity:1;stroke:none;stroke-width:0.425989"
       id="path841" />
    <path
       d="m 41.503818,15.321862 q -1.118214,1.402211 -1.118214,3.070665 0,1.970197 1.384455,3.230411 -1.082714,-0.248493 -1.916947,-1.08272 -0.869723,-0.816477 -0.869723,-2.129941 0,-2.289687 2.520429,-3.088415 z m 11.412942,6.691566 -3.407912,-0.212994 v -9.211996 q 0,-1.402211 -0.266242,-2.058944 -0.301741,-0.6744802 -1.047223,-1.153717 1.544205,0.3017412 2.094447,1.100469 0.550232,0.816478 0.550232,2.928669 v 5.484599 q 0,1.402211 0.390492,2.005695 0.372741,0.603483 1.686206,0.798728 z m -5.892842,-1.686203 v -4.632623 q -0.585732,-0.071 -0.993973,-0.071 -1.402206,0 -2.183189,0.851976 -0.780982,0.869727 -0.780982,1.987946 0,1.011722 0.656732,1.721702 0.674483,0.74548 1.632956,0.74548 0.851983,0 1.668456,-0.603483 z m 0,-5.608846 v -1.881448 q 0,-1.277965 -0.514732,-2.005695 -0.532492,-0.70998 -2.058947,-0.70998 -2.378429,0 -4.011385,1.7927 l -0.443742,-0.425988 q 0.656733,-1.118219 2.076698,-1.845949 1.419955,-0.6922305 2.946411,-0.6922305 3.319162,0 3.319162,3.6208995 v 9.229746 q -0.816483,0.0355 -1.366715,0.212994 l 0.05321,-0.940725 q -0.887474,0.940725 -2.112188,0.940725 -1.402215,0 -2.342939,-1.10047 -0.958473,-1.100469 -0.958473,-2.484931 0,-1.597456 1.171464,-2.733425 1.135974,-1.135969 3.035171,-1.135969 0.603482,0 1.206965,0.159746 z"
       style="font-style:normal;font-variant:normal;font-weight:normal;font-stretch:normal;font-size:37.6411px;line-height:1.25;font-family:'Colonna MT';-inkscape-font-specification:'Colonna MT';letter-spacing:0px;word-spacing:0px;fill:#bfa374;fill-opacity:1;stroke:none;stroke-width:0.425989"
       id="path843" />
    <path
       id="path950"
       d="M 26.67236,23.733796 A 13.805167,13.805167 0 0 1 15.552525,29.357772 13.805167,13.805167 0 0 1 1.7473543,15.552605 13.805167,13.805167 0 0 1 15.552525,1.7474366 13.805167,13.805167 0 0 1 27.038814,7.8944487"
       style="fill:none;fill-opacity:1;stroke:#bfa374;stroke-width:0.383273;stroke-miterlimit:4;stroke-dasharray:none;stroke-opacity:1" />
    <path
       id="path952"
       d="M 28.327045,23.73307 A 15.169334,15.169334 0 0 1 15.552525,30.721938 15.169334,15.169334 0 0 1 0.38317916,15.552605 15.169334,15.169334 0 0 1 15.552525,0.38327217 15.169334,15.169334 0 0 1 28.644759,7.890864"
       style="fill:none;fill-opacity:1;stroke:#bfa374;stroke-width:0.766545;stroke-miterlimit:4;stroke-dasharray:none;stroke-opacity:1" />
    <g
       aria-label="group"
       id="text959"
       style="font-style:normal;font-variant:normal;font-weight:normal;font-stretch:normal;font-size:4.60347px;line-height:1.25;font-family:'Times New Roman';-inkscape-font-specification:'Times New Roman, ';letter-spacing:0px;word-spacing:0px;fill:#bfa374;fill-opacity:1;stroke:none;stroke-width:0.0539469"
       transform="matrix(0.96572615,0,0,0.96572615,561.76088,-301.03236)">
      <path
         d="m -546.29982,337.6365 h 0.31694 v 1.94883 q 0,0.51474 -0.0899,0.75301 -0.12363,0.33717 -0.42933,0.51924 -0.3057,0.18207 -0.73503,0.18207 -0.31469,0 -0.56644,-0.0899 -0.24951,-0.0877 -0.40685,-0.23827 -0.15735,-0.14835 -0.28996,-0.43607 h 0.34166 q 0.13936,0.24276 0.35964,0.35965 0.22029,0.11688 0.54622,0.11688 0.32143,0 0.54171,-0.12138 0.22254,-0.11913 0.31694,-0.3012 0.0944,-0.18207 0.0944,-0.58667 v -0.12588 q -0.17758,0.22478 -0.43382,0.34616 -0.25625,0.11913 -0.54397,0.11913 -0.33717,0 -0.63387,-0.16633 -0.29671,-0.16859 -0.45855,-0.45181 -0.16184,-0.28322 -0.16184,-0.62264 0,-0.33941 0.16858,-0.63163 0.16858,-0.29446 0.46529,-0.46529 0.29896,-0.17083 0.62938,-0.17083 0.27423,0 0.51025,0.11464 0.23827,0.11239 0.45855,0.37313 z m -0.92834,0.24051 q -0.26748,0 -0.49676,0.13037 -0.22927,0.12813 -0.35964,0.3574 -0.13038,0.22703 -0.13038,0.49227 0,0.40235 0.26974,0.66534 0.26973,0.26299 0.69906,0.26299 0.43382,0 0.69681,-0.26074 0.26524,-0.26074 0.26524,-0.68557 0,-0.27648 -0.12138,-0.49227 -0.12138,-0.21804 -0.34391,-0.34391 -0.22253,-0.12588 -0.47878,-0.12588 z"
         style="font-style:normal;font-variant:normal;font-weight:normal;font-stretch:normal;font-family:'Century Gothic';-inkscape-font-specification:'Century Gothic';fill:#bfa374;fill-opacity:1;stroke-width:0.0539469"
         id="path846" />
      <path
         d="m -545.42318,337.6365 h 0.32143 v 0.3574 q 0.14386,-0.21129 0.30345,-0.31469 0.15959,-0.10565 0.33267,-0.10565 0.13038,0 0.27873,0.0832 l -0.16409,0.26524 q -0.0989,-0.0427 -0.16633,-0.0427 -0.15735,0 -0.30346,0.13037 -0.1461,0.12813 -0.22253,0.40011 -0.0584,0.20904 -0.0584,0.84517 v 0.82718 h -0.32143 z"
         style="font-style:normal;font-variant:normal;font-weight:normal;font-stretch:normal;font-family:'Century Gothic';-inkscape-font-specification:'Century Gothic';fill:#bfa374;fill-opacity:1;stroke-width:0.0539469"
         id="path848" />
      <path
         d="m -542.7618,337.57356 q 0.56419,0 0.93508,0.4091 0.33717,0.37313 0.33717,0.88338 0,0.51249 -0.3574,0.89687 -0.35515,0.38212 -0.91485,0.38212 -0.56195,0 -0.91935,-0.38212 -0.35515,-0.38438 -0.35515,-0.89687 0,-0.508 0.33717,-0.88113 0.37089,-0.41135 0.93733,-0.41135 z m 0,0.30795 q -0.39112,0 -0.67209,0.28996 -0.28097,0.28997 -0.28097,0.70131 0,0.26524 0.12812,0.49452 0.12812,0.22927 0.34616,0.35515 0.21803,0.12362 0.47878,0.12362 0.26074,0 0.47878,-0.12362 0.21803,-0.12588 0.34616,-0.35515 0.12812,-0.22928 0.12812,-0.49452 0,-0.41134 -0.28322,-0.70131 -0.28098,-0.28996 -0.66984,-0.28996 z"
         style="font-style:normal;font-variant:normal;font-weight:normal;font-stretch:normal;font-family:'Century Gothic';-inkscape-font-specification:'Century Gothic';fill:#bfa374;fill-opacity:1;stroke-width:0.0539469"
         id="path850" />
      <path
         d="m -540.94784,337.6365 h 0.31694 v 1.14188 q 0,0.41808 0.045,0.57543 0.0674,0.22478 0.25624,0.35515 0.19107,0.13037 0.45406,0.13037 0.26299,0 0.44506,-0.12587 0.18432,-0.12813 0.254,-0.33493 0.0472,-0.14161 0.0472,-0.60015 v -1.14188 h 0.32144 v 1.20032 q 0,0.50575 -0.11914,0.762 -0.11688,0.25625 -0.35515,0.40235 -0.23601,0.14386 -0.59341,0.14386 -0.3574,0 -0.59791,-0.14386 -0.23827,-0.1461 -0.3574,-0.4046 -0.11689,-0.26074 -0.11689,-0.78223 z"
         style="font-style:normal;font-variant:normal;font-weight:normal;font-stretch:normal;font-family:'Century Gothic';-inkscape-font-specification:'Century Gothic';fill:#bfa374;fill-opacity:1;stroke-width:0.0539469"
         id="path852" />
      <path
         d="m -538.10663,337.6365 h 0.31244 v 0.44956 q 0.18657,-0.25625 0.42933,-0.38438 0.24276,-0.12812 0.54171,-0.12812 0.52149,0 0.89237,0.37538 0.37089,0.37538 0.37089,0.90361 0,0.53947 -0.36864,0.9171 -0.36639,0.37538 -0.88563,0.37538 -0.29221,0 -0.53722,-0.12138 -0.24501,-0.12138 -0.44281,-0.36189 v 1.31495 h -0.31244 z m 1.25876,0.24051 q -0.4091,0 -0.69007,0.28547 -0.27873,0.28547 -0.27873,0.7103 0,0.27873 0.12363,0.50126 0.12588,0.22253 0.3574,0.3529 0.23377,0.13037 0.49226,0.13037 0.254,0 0.47653,-0.13037 0.22478,-0.13262 0.3574,-0.36864 0.13262,-0.23601 0.13262,-0.49451 0,-0.26074 -0.13262,-0.49451 -0.13037,-0.23377 -0.3529,-0.3619 -0.22253,-0.13037 -0.48552,-0.13037 z"
         style="font-style:normal;font-variant:normal;font-weight:normal;font-stretch:normal;font-family:'Century Gothic';-inkscape-font-specification:'Century Gothic';fill:#bfa374;fill-opacity:1;stroke-width:0.0539469"
         id="path854" />
    </g>
  </g>
</svg>
